<?xml version="1.0" encoding="UTF-8" standalone="no"?>
<!-- Created with Inkscape (http://www.inkscape.org/) -->

<svg
   xmlns:dc="http://purl.org/dc/elements/1.1/"
   xmlns:cc="http://creativecommons.org/ns#"
   xmlns:rdf="http://www.w3.org/1999/02/22-rdf-syntax-ns#"
   xmlns:svg="http://www.w3.org/2000/svg"
   xmlns="http://www.w3.org/2000/svg"
   xmlns:xlink="http://www.w3.org/1999/xlink"
   xmlns:sodipodi="http://sodipodi.sourceforge.net/DTD/sodipodi-0.dtd"
   xmlns:inkscape="http://www.inkscape.org/namespaces/inkscape"
   width="599.99994"
   height="252"
   id="svg2"
   version="1.1"
   inkscape:version="0.48.2 r9819"
   sodipodi:docname="icon.svg"
   inkscape:export-filename="/Users/maximilianstrauch/Documents/BSc Semester 6/J2EE/projekt/icon_vote_large.png"
   inkscape:export-xdpi="180"
   inkscape:export-ydpi="180">
  <defs
     id="defs4">
    <linearGradient
       id="linearGradient4850">
      <stop
         style="stop-color:#ffffff;stop-opacity:0.72173911;"
         offset="0"
         id="stop4852" />
      <stop
         style="stop-color:#ffffff;stop-opacity:0;"
         offset="1"
         id="stop4854" />
    </linearGradient>
    <linearGradient
       id="linearGradient4809">
      <stop
         style="stop-color:#ededed;stop-opacity:1;"
         offset="0"
         id="stop4811" />
      <stop
         style="stop-color:#ffffff;stop-opacity:1;"
         offset="1"
         id="stop4813" />
    </linearGradient>
    <inkscape:perspective
       sodipodi:type="inkscape:persp3d"
       inkscape:vp_x="0 : 71 : 1"
       inkscape:vp_y="0 : 1000 : 0"
       inkscape:vp_z="142 : 71 : 1"
       inkscape:persp3d-origin="71 : 47.333333 : 1"
       id="perspective4094" />
    <linearGradient
       inkscape:collect="always"
       xlink:href="#linearGradient3937"
       id="linearGradient4260"
       gradientUnits="userSpaceOnUse"
       gradientTransform="matrix(1.193821,0,0,1.193821,888.63967,1032.9694)"
       x1="-497.70731"
       y1="-612.09888"
       x2="-356.7659"
       y2="-745.43292" />
    <linearGradient
       id="linearGradient3937">
      <stop
         id="stop3939"
         offset="0"
         style="stop-color:#0e836a;stop-opacity:1;" />
      <stop
         id="stop3941"
         offset="1"
         style="stop-color:#90f4df;stop-opacity:1;" />
    </linearGradient>
    <linearGradient
       inkscape:collect="always"
       xlink:href="#linearGradient4809"
       id="linearGradient4906"
       gradientUnits="userSpaceOnUse"
       x1="679.79657"
       y1="1105.9845"
       x2="580.49664"
       y2="1062.5613" />
    <linearGradient
       inkscape:collect="always"
       xlink:href="#linearGradient4850"
       id="linearGradient4908"
       gradientUnits="userSpaceOnUse"
       x1="585.49664"
       y1="1039.6453"
       x2="614.25287"
       y2="1106.3153" />
  </defs>
  <sodipodi:namedview
     id="base"
     pagecolor="#ffffff"
     bordercolor="#666666"
     borderopacity="1.0"
     inkscape:pageopacity="0.0"
     inkscape:pageshadow="2"
     inkscape:zoom="2.1816669"
     inkscape:cx="299.99997"
     inkscape:cy="126"
     inkscape:document-units="px"
     inkscape:current-layer="layer1"
     showgrid="false"
     fit-margin-top="0"
     fit-margin-left="0"
     fit-margin-right="0"
     fit-margin-bottom="0"
     inkscape:window-width="1440"
     inkscape:window-height="792"
     inkscape:window-x="0"
     inkscape:window-y="0"
     inkscape:window-maximized="1" />
  <metadata
     id="metadata7">
    <rdf:RDF>
      <cc:Work
         rdf:about="">
        <dc:format>image/svg+xml</dc:format>
        <dc:type
           rdf:resource="http://purl.org/dc/dcmitype/StillImage" />
        <dc:title />
      </cc:Work>
    </rdf:RDF>
  </metadata>
  <g
     inkscape:label="Ebene 1"
     inkscape:groupmode="layer"
     id="layer1"
     transform="translate(-1093.6321,-852.73671)">
    <path
       inkscape:connector-curvature="0"
       style="color:#000000;fill:#ffffff;fill-opacity:1;fill-rule:nonzero;stroke:none;stroke-width:1.70000005000000010;marker:none;visibility:visible;display:inline;overflow:visible;enable-background:accumulate"
       d="m 1649.5039,852.7832 c -8.85,0.45865 -18.1371,4.39652 -24.3926,9.55523 -9.3478,7.72117 -14.3473,19.47083 -15.6936,29.86036 -0.6932,5.35149 -1.3793,12.89137 -2.0468,23.20556 l -1.7058,26.7885 c -3.0732,-2.48436 -5.9803,-5.1702 -9.3821,-7.16642 -0.054,0 0,-0.15289 0,-0.16927 -0.054,-0.0546 -0.1255,0 -0.1692,0 -12.5754,-7.46454 -27.2939,-10.92026 -42.4741,-10.92026 -11.5409,0 -22.8947,1.82149 -33.4336,5.97229 -0.055,0 -0.12,0 -0.1691,0 -7.2048,2.79941 -13.5187,7.0474 -19.4461,11.77314 0.06,-0.72129 0.6823,-1.5212 0.6823,-2.21791 -5e-4,-9.71467 -5.5104,-20.4946 -11.9406,-26.44778 l 0.1692,-0.16927 c -0.1582,-0.14742 -0.3494,-0.19656 -0.5131,-0.33853 -0.06,-0.0546 -0.1091,-0.11466 -0.1693,-0.16925 -3.441,-3.04731 -7.2903,-4.97146 -11.2581,-6.48392 -0.082,-4.20976 -0.1529,-8.29338 -1.0235,-12.62655 l 0.1692,0 c 0,-0.12012 -0.1474,-0.2184 -0.1692,-0.33853 -0.055,-0.17472 0.055,-0.33306 0,-0.51324 l -0.1692,0 c -1.6201,-7.64037 -5.8348,-15.28019 -11.4291,-20.47548 -6.802,-6.31794 -17.1895,-11.26154 -27.9751,-11.26154 -7.529,0 -14.565,2.2332 -20.1284,5.46013 -0.1364,0.0764 -0.2074,0.26209 -0.3384,0.33853 -0.055,0 -0.131,0 -0.1692,0 -5.7441,3.39622 -10.921,8.59042 -13.9875,13.82123 -0.055,0.0546 0,0.13105 0,0.16927 -0.055,0.0655 -0.131,0.10374 -0.1693,0.16926 -2.8106,4.8475 -4.9787,11.05294 -5.6288,17.23327 a 26.339321,26.346963 0 0 0 0,0.68252 c -0.1747,2.12562 -0.1038,4.8535 -0.1692,7.33731 -2.3429,-2.24193 -4.4281,-4.82512 -7.3352,-6.4839 -7.6021,-4.33699 -15.7038,-6.09679 -24.0515,-5.46013 -13.2752,1.0003 -25.594,8.88964 -32.581,20.64585 -0.4803,-0.003 -0.8837,-0.17473 -1.3646,-0.16927 -7.0835,0.0819 -14.1338,1.00794 -21.1519,2.90097 -7.7211,2.08304 -14.8881,5.26465 -21.493,9.21397 -2.7467,-1.48898 -5.535,-2.09833 -8.3581,-2.90097 0.2455,-0.88836 0.3493,-1.50863 0.6823,-2.73006 a 26.339321,26.346963 0 0 0 0,-0.33853 c 0.8756,-3.39075 1.4056,-6.27205 1.7058,-8.36055 a 26.339321,26.346963 0 0 0 0,-0.16927 c 0.4531,-3.37272 0.714,-7.09162 0.3384,-11.09116 -0.6151,-6.61113 -3.3963,-13.60119 -7.3352,-19.11045 -0.087,-0.0819 -0.098,-0.24025 -0.1692,-0.33854 -0.071,-0.10374 -0.098,-0.24024 -0.1692,-0.33853 -4.1087,-5.66488 -9.7943,-10.11433 -15.8636,-12.96781 -0.1201,-0.0546 -0.2184,-0.11465 -0.3385,-0.16926 -7.2795,-3.3629 -14.8292,-4.1579 -20.9815,-3.58294 -7.5366,0.70545 -17.1573,3.86686 -24.2223,10.74936 -0.055,0.0546 -0.1147,0.11466 -0.1692,0.16927 -0.06,0.06 -0.1093,0.1092 -0.1693,0.16927 -4.3237,4.2578 -8.1632,9.82986 -10.405,16.72164 l -0.1693,0 c -0.054,0.0873 0.055,0.25117 0,0.33853 -1.2287,3.8008 -2.209,7.75611 -3.5824,13.65032 l -7.6758,32.24917 -12.9641,-29.34819 c -0.054,-0.12559 -0.1146,-0.21841 -0.1692,-0.33853 -3.4023,-7.89644 -6.6599,-14.42022 -11.9405,-20.81675 -0.055,-0.0655 -0.1201,-0.10375 -0.1693,-0.16927 -0.082,-0.10374 -0.087,-0.24025 -0.1692,-0.33853 l -0.1692,0.16927 c -9.0028,-10.78922 -23.642,-14.30391 -34.2868,-13.30907 -10.2719,0.9588 -21.8887,7.03265 -28.4865,15.18572 -5.6015,6.92071 -10.4356,17.84752 -9.3821,29.17784 0.4639,4.96927 1.4394,7.86205 2.2178,10.4081 a 26.339321,26.346963 0 0 0 0.3384,0.85343 c 0.8777,2.5668 1.8428,5.37713 3.2407,8.36055 a 26.339321,26.346963 0 0 0 0.5131,0.6825 c 1.0301,2.01207 1.5328,3.33725 1.8767,4.09511 a 26.339321,26.346963 0 0 0 0.3384,0.33852 l 46.2268,97.08827 -0.1692,0 c 1.8597,4.1066 3.8297,7.9942 5.6294,11.6027 2.2364,4.486 4.8095,8.9803 8.1878,13.3091 a 26.339321,26.346963 0 0 0 0.5131,0.6825 c 4.5088,5.434 10.5918,9.878 17.058,12.7969 l 0,0.1693 c 0.055,0 0.131,0 0.1692,0 8.0667,3.6228 16.5503,4.4636 24.2223,3.7538 7.8106,-0.7224 16.0383,-3.1625 23.3691,-8.3605 0.065,-0.055 0.1038,-0.1256 0.1693,-0.1692 5.2664,-3.7332 10.538,-9.095 14.1583,-15.698 a 26.339321,26.346963 0 0 0 0.1693,-0.1692 c 2.7183,-5.1085 4.6021,-10.205 5.97,-15.0154 a 26.339321,26.346963 0 0 0 0,-0.1692 c 0.9891,-3.5683 2.0191,-7.5148 3.0704,-11.7738 l 0.1692,-0.5132 1.1943,-4.2654 c 1.9144,5.5682 3.9051,11.1397 6.8232,16.0391 -10.934,19.7959 -3.9088,45.3677 15.8635,56.6488 19.5985,11.1813 45.0403,4.3425 56.6326,-15.0153 7.3587,0.055 14.8838,-0.8928 22.3462,-2.901 7.7801,-2.0994 14.9635,-5.269 21.493,-9.2139 16.4876,9.025 36.4068,5.1527 49.2973,-7.6781 9.5644,4.7312 19.4667,6.6543 29.6808,6.6543 11.9095,0 22.5891,-0.9572 33.6044,-6.3131 1.6785,2.1678 3.1857,4.4986 5.1172,6.484 16.0014,16.4454 39.0239,23.7172 62.6027,23.7172 10.1337,0 20.1485,-1.1532 29.8517,-4.4364 0.055,0 0.1201,0 0.1692,0 8.4399,-2.8589 16.3817,-6.6908 23.3691,-12.1144 5.5317,-4.3134 9.9586,-9.5825 13.8173,-15.3567 2.2526,0.6974 4.3701,1.9226 6.6523,2.218 10.5404,1.3667 21.7588,-1.5404 30.0219,-7.1664 9.8108,-6.6821 16.0848,-19.2017 17.3992,-29.3482 1.227,-9.4728 -1.7707,-20.5246 -7.5055,-29.00697 0.055,-0.0601 0.1309,-0.1092 0.1691,-0.16927 5.3468,-8.09574 7.075,-15.18789 8.7,-22.86428 0,-0.0546 0,-0.11467 0,-0.16928 l 11.0874,-51.01782 0.1691,-0.33853 -0.1691,0 c 1.2729,-5.45303 2.3652,-10.76628 3.0704,-16.21003 1.3008,-10.04118 1.7811,-19.50359 -1.8762,-30.37198 0,-0.0546 0,-0.12559 0,-0.16927 -4.7205,-13.9206 -20.8352,-23.8777 -32.7513,-25.42345 -2.744,-0.36038 -5.3252,-0.5078 -8.5289,-0.33854 z m 1.3646,26.27688 c 1.1594,-0.06 2.5017,0 3.7527,0.16927 6.0618,0.78626 9.7621,3.35361 11.2583,7.84894 1.5048,4.42489 1.7053,10.7024 0.6823,18.59884 -0.6027,4.65312 -1.4443,9.26093 -2.5584,13.99159 l -11.2582,51.52998 c -1.2975,6.14046 -2.8963,10.88751 -4.9471,13.99159 -2.0502,3.10354 -4.964,4.41014 -8.6994,3.92419 -3.8062,-0.49141 -6.2658,-2.43631 -7.3351,-5.80138 -1.06,-3.43498 -1.5797,-8.54675 -1.3646,-15.18573 l 3.2413,-51.01836 c 0.644,-9.95273 1.3192,-17.19832 1.8761,-21.49927 0.7581,-5.85162 2.86,-10.11707 6.3116,-12.96781 2.648,-2.1835 5.5633,-3.40276 9.0405,-3.58294 z m -213.9068,7.84894 c 3.696,5.5e-4 7.0792,1.49335 10.0645,4.26602 1.9896,1.84823 3.2549,4.12347 3.7527,6.82515 0.5683,2.63069 0.8526,6.35614 0.8526,11.26151 l 0,19.79298 10.576,0 c 4.1223,0 7.2495,1.08056 9.382,3.07132 2.2032,1.91924 3.4115,4.28021 3.4115,7.33678 0,3.91054 -1.6488,6.79677 -4.7761,8.3611 -3.0562,1.56378 -7.3777,2.21845 -13.1349,2.21791 l -5.4585,0 0,53.57751 c 0,4.5505 0.055,8.0908 0.3385,10.579 0.3548,2.4172 1.2085,4.408 2.5589,5.9723 1.4214,1.4928 3.6955,2.2179 6.8232,2.2179 1.7058,0 4.0797,-0.2839 6.9935,-0.8528 2.9142,-0.6416 5.1884,-1.0238 6.8232,-1.0238 2.3455,0 4.4635,0.9812 6.3117,2.9004 1.9187,1.8488 2.8996,4.2234 2.8996,6.996 0,4.6919 -2.559,8.2612 -7.6758,10.7495 -5.1175,2.4887 -12.5803,3.7538 -22.1754,3.7538 -9.0977,0 -15.9493,-1.5496 -20.6404,-4.6068 -4.6911,-3.0571 -7.7189,-7.2237 -9.2115,-12.6265 -1.4212,-5.4033 -2.217,-12.6407 -2.217,-21.6701 l 0,-55.96641 -3.7528,0 c -4.1938,5.4e-4 -7.5197,-0.90967 -9.7233,-2.90042 -2.2032,-1.99077 -3.2408,-4.62091 -3.2408,-7.67859 0,-3.05657 1.1371,-5.41754 3.4117,-7.33678 2.345,-1.99076 5.6572,-3.07132 10.0639,-3.07132 l 3.2413,0 0,-17.40416 c 0,-4.69245 0.1255,-8.46048 0.3384,-11.09117 0.2838,-2.70113 1.0802,-4.90538 2.2173,-6.82516 1.137,-1.99022 2.6441,-3.56875 4.7762,-4.77762 2.132,-1.27931 4.5344,-2.047 7.1643,-2.04755 z m -196.678,3.75384 c 2.6889,-0.25117 5.286,0.0601 7.6758,1.19467 2.4602,1.12862 4.4858,2.80161 5.9706,4.94798 1.548,2.06994 2.3477,4.21904 2.5583,6.48391 0.1475,1.55722 0.082,3.23895 -0.1691,5.11886 -0.2621,1.80895 -0.5514,3.63154 -1.0235,5.46014 -0.4804,1.75816 -1.0693,3.73145 -1.535,5.63103 l -28.1459,105.10755 c -0.9825,4.0181 -2.0546,7.9385 -3.0704,11.6027 -1.0218,3.5945 -2.2337,6.8711 -3.7528,9.7256 -1.5256,2.7837 -3.6676,5.0206 -6.482,6.9961 -2.7434,1.9683 -6.3297,3.1898 -10.5759,3.5829 -4.2462,0.3931 -7.9575,-0.1146 -11.0874,-1.5353 -3.053,-1.3585 -5.5863,-3.2827 -7.6764,-5.8014 -2.0256,-2.5964 -3.7915,-5.529 -5.4585,-8.8728 -1.6672,-3.3432 -3.4111,-6.9818 -5.1175,-10.7499 l -46.3976,-97.4289 c -0.8078,-1.7811 -1.6867,-3.41476 -2.5584,-5.11887 -0.8018,-1.71011 -1.5316,-3.62443 -2.2178,-5.63103 -0.6152,-2.01315 -1.0622,-3.70361 -1.1938,-5.11887 -0.3384,-3.61079 0.9569,-6.99443 3.5819,-10.23775 2.625,-3.24332 6.0175,-5.05062 10.4057,-5.46013 5.3783,-0.50233 9.4372,0.80209 11.9405,3.92474 2.5672,3.04566 5.3516,8.0122 8.3582,15.01536 l 44.8627,101.01245 25.5869,-108.34978 c 1.3264,-5.69218 2.3477,-9.56341 3.0704,-11.77312 0.7157,-2.28015 2.1282,-4.4167 4.0939,-6.31355 1.958,-1.96729 4.678,-3.0686 8.358,-3.41259 z m 126.7404,29.51911 c 3,-0.22933 6.2347,0.44773 9.0409,2.04754 7.4826,4.26928 10.0672,13.67218 5.7998,21.15802 l -8.3587,14.67409 c 7.0006,7.01027 12.4187,15.85841 15.1818,26.10598 2.7184,10.0865 2.5889,20.2554 0.1692,29.6894 l 14.4989,8.1902 c 7.4833,4.2688 10.0679,13.8442 5.7999,21.329 -4.2681,7.4853 -13.8391,10.0706 -21.3223,5.8014 l -14.499,-8.3611 c -7.0131,6.9698 -15.8654,12.4251 -26.0989,15.1863 -10.0284,2.6988 -20.1224,2.5312 -29.51,0.1692 l -8.3586,14.5032 c -4.2676,7.4853 -13.8391,10.0706 -21.3222,5.8014 -7.4831,-4.2693 -10.0678,-13.8431 -5.7997,-21.3284 l 8.3581,-14.5037 c -6.9678,-6.9944 -12.2512,-15.6984 -15.011,-25.9356 -2.7216,-10.0942 -2.738,-20.40621 -0.3384,-29.85988 l -14.499,-8.19019 c -7.4831,-4.26873 -10.0678,-13.84361 -5.7997,-21.32891 2.1337,-3.74237 5.548,-6.11698 9.3816,-7.16641 3.8341,-1.0489 8.1993,-0.76934 11.9405,1.36502 l 14.3285,8.19019 c 6.9741,-6.94746 15.9015,-12.26453 26.0992,-15.01535 4.8854,-1.31807 9.8319,-1.99295 14.6698,-2.04756 5.1611,-0.06 10.1256,0.62629 15.011,1.8772 l 8.3581,-14.50374 c 2.6677,-4.67879 7.2818,-7.47219 12.2818,-7.84894 z m 186.6139,30.03072 c 11.3718,0 21.0669,2.50238 29.1695,7.33677 8.1737,4.76343 14.3713,10.99179 18.4226,18.59885 4.0506,7.60759 5.97,15.31403 5.97,23.20556 0,7.32313 -1.9476,12.12913 -6.1408,14.33283 -4.1933,2.1333 -10.1355,3.0713 -17.7403,3.0713 l -56.9736,0 c 0.071,6.6117 1.3646,12.5266 3.9236,17.5746 2.6294,5.0478 6.1408,8.8733 10.4051,11.4324 4.3356,2.5596 9.1402,3.7538 14.3286,3.7538 3.4826,0 6.5388,-0.4149 9.3822,-1.1947 2.9138,-0.8528 5.8281,-2.0476 8.5289,-3.7538 2.701,-1.7773 5.0602,-3.6397 7.3348,-5.6305 2.2745,-1.9902 5.2451,-4.7776 8.87,-8.1902 1.4925,-1.2798 3.7103,-1.8772 6.4821,-1.8772 2.9853,0 5.3167,0.7535 7.1644,2.3888 1.8476,1.6354 2.7292,4.01 2.7292,6.9961 0,2.6302 -1.0092,5.6589 -3.0704,9.214 -2.0611,3.4835 -5.1883,6.9676 -9.3816,10.2378 -4.1228,3.1996 -9.368,5.8865 -15.6933,8.0192 -6.255,2.1327 -13.3194,3.0714 -21.493,3.0714 -18.6928,0 -33.2919,-5.2035 -43.6684,-15.8683 -10.3773,-10.6642 -15.523,-25.2389 -15.523,-43.5107 0,-8.6024 1.1943,-16.56494 3.7527,-23.88807 2.5589,-7.39355 6.3542,-13.67872 11.2583,-18.93955 4.9039,-5.26137 10.9028,-9.34174 18.0814,-12.11494 7.1785,-2.84363 15.1393,-4.26545 23.881,-4.26545 z m -221.7533,6.65426 c -10.0432,0 -19.0051,3.54089 -26.2693,9.38487 l 20.6404,11.77313 11.7697,-20.64585 c -1.9721,-0.28392 -4.0906,-0.51324 -6.1408,-0.51324 z m 220.7299,13.65033 c -7.2495,0 -13.22,2.46033 -17.9105,7.50767 -4.6201,4.97692 -7.3636,12.37103 -8.3587,22.18185 l 52.7094,0 c -0.7113,-9.95334 -3.3265,-17.27647 -8.0175,-22.18185 -4.6196,-4.97636 -10.8178,-7.50767 -18.4227,-7.50767 z m -187.4666,2.3888 -11.7703,20.6464 20.4695,11.77312 c 0.273,-1.946 0.5129,-3.951 0.5129,-5.97173 0,-9.9844 -3.4338,-19.20329 -9.2111,-26.44779 z m -75.0551,20.4755 c -0.2729,1.94326 -0.5132,3.95367 -0.5132,5.97229 0,9.98433 3.6044,19.20213 9.3817,26.44723 l 11.7703,-20.6459 -20.6404,-11.77362 z m 343.7177,14.16242 c 1.0518,-0.06 2.131,-0.1419 3.2411,0 4.4406,0.5756 8.0471,2.6384 10.7464,6.1427 2.7795,3.4426 3.8073,7.4017 3.2413,11.7731 -0.6398,4.9349 -2.6039,8.5113 -6.1409,10.9203 -3.5371,2.409 -7.5411,3.4492 -11.7703,2.901 -4.2997,-0.5569 -7.8605,-2.4609 -10.7462,-5.631 -2.8068,-3.2314 -3.8898,-7.2795 -3.2414,-12.2854 0.5667,-4.3712 2.5471,-7.9396 5.9707,-10.5789 2.6271,-2.0252 5.5448,-3.0561 8.6993,-3.2418 z m -295.9555,12.9679 -11.5993,20.6459 c 1.8974,0.2674 3.6599,0.5132 5.6289,0.5132 10.0158,0 19.356,-3.399 26.6104,-9.214 l -20.64,-11.944 z"
       id="path4788-4-1" />
  </g>
</svg>
